<?xml version="1.0" standalone="no"?>
<!DOCTYPE svg PUBLIC "-//W3C//DTD SVG 20010904//EN"
 "http://www.w3.org/TR/2001/REC-SVG-20010904/DTD/svg10.dtd">
<svg version="1.0" xmlns="http://www.w3.org/2000/svg"
 width="1080.000000pt" height="1080.000000pt" viewBox="0 0 1080.000000 1080.000000"
 preserveAspectRatio="xMidYMid meet">

<g transform="translate(0.000000,1080.000000) scale(0.100000,-0.100000)"
fill="#000000" stroke="none">
<path d="M8115 6396 c-39 -17 -93 -78 -101 -114 -3 -15 -8 -33 -10 -40 -2 -7
1 -34 7 -60 11 -44 35 -70 327 -357 182 -179 321 -323 328 -342 10 -24 11 -39
3 -60 -5 -15 -153 -171 -329 -348 -280 -282 -319 -325 -330 -364 -39 -146 134
-278 261 -198 41 25 810 800 827 834 17 31 15 188 -2 221 -23 44 -781 795
-827 820 -47 25 -108 28 -154 8z"/>
</g>
</svg>
