<?xml version="1.0" standalone="no"?>
<!DOCTYPE svg PUBLIC "-//W3C//DTD SVG 20010904//EN"
 "http://www.w3.org/TR/2001/REC-SVG-20010904/DTD/svg10.dtd">
<svg version="1.0" xmlns="http://www.w3.org/2000/svg"
 width="1024.000000pt" height="1024.000000pt" viewBox="0 0 1024.000000 1024.000000"
 preserveAspectRatio="xMidYMid meet">

<g transform="translate(0.000000,1024.000000) scale(0.100000,-0.100000)"
fill="#000000" stroke="none">
<path d="M4733 7395 c-131 -29 -238 -116 -301 -244 -36 -73 -37 -77 -37 -190
0 -129 13 -179 69 -263 17 -26 326 -343 686 -705 500 -502 662 -671 685 -713
26 -48 30 -65 29 -130 -1 -134 29 -99 -712 -845 -456 -459 -677 -689 -699
-726 -78 -132 -83 -312 -12 -451 30 -58 119 -150 177 -181 135 -73 299 -74
432 -1 62 34 1886 1859 1923 1924 49 88 69 167 69 275 1 76 -4 115 -21 162
-49 144 -38 132 -990 1086 -493 494 -917 914 -943 933 -94 70 -234 97 -355 69z"/>
</g>
</svg>
